# xmcd CD database file
#
# Track frame offsets:
#	150
#	13172
#	30282
#	44174
#	58966
#	72933
#	87687
#	100399
#	114114
#	125779
#	140759
#	154766
#	170083
#	183985
#
# Disc length: 2603 seconds
#
# Revision: 0
# Processed by: cddbd v1.5.1PL0 Copyright (c) Steve Scherf et al.
# Submitted via: CDex 1.51
#
DISCID=d00a290e
DTITLE=Omnibus Jazz - Amuse Media Jazz Piano
DYEAR=1900
DGENRE=Jazz
TTITLE0=Lover Come Back to Me
TTITLE1=Tenderly
TTITLE2=Stardust
TTITLE3=It Could Happen to You
TTITLE4=Penthouse Serenade
TTITLE5=Ask Me Now
TTITLE6=Cocktails for Two
TTITLE7=Ain't Misbehavin'
TTITLE8=Snowy Morning Blues
TTITLE9=September in The Rain
TTITLE10=These Foolish Things
TTITLE11=Somebody Loves Me
TTITLE12=Off Minor
TTITLE13=Tempus Fugue_It
EXTD=
EXTT0=
EXTT1=
EXTT2=
EXTT3=
EXTT4=
EXTT5=
EXTT6=
EXTT7=
EXTT8=
EXTT9=
EXTT10=
EXTT11=
EXTT12=
EXTT13=
PLAYORDER=
